PathFileType	4	(X/Y/Z)	RBDS023\RBDS023runT45.trc
DataRate	CameraRate	NumFrames	NumMarkers	Units	OrigDataRate	OrigDataStartFrame	OrigNumFrames
150.000000	150.000000	4	33	mm	150.000000	562	4500
Frame#	Time	L.ASIS			L.Heel.Bottom			L.Heel.Lateral			L.Heel.Top			L.Iliac.Crest			L.MT1			L.MT5			L.PSIS			L.Shank.Bottom.Lateral			L.Shank.Bottom.Medial			L.Shank.Top.Lateral			L.Shank.Top.Medial			L.Thigh.Bottom.Lateral			L.Thigh.Bottom.Medial			L.Thigh.Top.Lateral			L.Thigh.Top.Medial			R.ASIS			R.ASY			R.Heel.Bottom			R.Heel.Lateral			R.Heel.Top			R.Iliac.Crest			R.MT1			R.MT5			R.PSIS			R.Shank.Bottom.Lateral			R.Shank.Bottom.Medial			R.Shank.Top.Lateral			R.Shank.Top.Medial			R.Thigh.Bottom.Lateral			R.Thigh.Bottom.Medial			R.Thigh.Top.Lateral			R.Thigh.Top.Medial			
		X1	Y1	Z1	X2	Y2	Z2	X3	Y3	Z3	X4	Y4	Z4	X5	Y5	Z5	X6	Y6	Z6	X7	Y7	Z7	X8	Y8	Z8	X9	Y9	Z9	X10	Y10	Z10	X11	Y11	Z11	X12	Y12	Z12	X13	Y13	Z13	X14	Y14	Z14	X15	Y15	Z15	X16	Y16	Z16	X17	Y17	Z17	X18	Y18	Z18	X19	Y19	Z19	X20	Y20	Z20	X21	Y21	Z21	X22	Y22	Z22	X23	Y23	Z23	X24	Y24	Z24	X25	Y25	Z25	X26	Y26	Z26	X27	Y27	Z27	X28	Y28	Z28	X29	Y29	Z29	X30	Y30	Z30	X31	Y31	Z31	X32	Y32	Z32	X33	Y33	Z33	

563	3.746666666666667	2415.389232014219	980.4595076478793	958.1250563684005	1813.505666604232	692.5009695003657	1039.347580404886	1814.420119934935	661.4140701466903	996.728839155102	1847.736103822577	659.9463354526285	1036.612969445898	2365.713505467651	1061.884617411244	904.3415237282518	1708.478662514619	490.9802790959664	1063.699486823203	1713.004528424321	533.3044454593252	955.3657763768142	2228.692985881123	1012.660618077092	990.08113748222	1893.025723353595	576.1638016247634	967.3459420328145	1903.03285396363	617.4519420959608	996.2629678244717	1971.236807691388	567.5910953225412	947.8574345888184	1985.426981599389	607.9690465966133	979.4461342297765	2257.876645119515	616.0491185605454	895.368418150341	2203.609873595507	627.1837038252836	940.3469964074205	2268.445406749473	725.1351746371005	885.1517065033155	2216.392091364191	736.342128902084	928.3795027983413	2397.032061053726	988.4143986436308	1166.354967815219	2637.404795412254	89.67916512686399	1112.242637856201	2454.379163296397	20.04118218506573	1087.578774378698	2479.36237614643	36.9767355276261	1133.430447389617	2460.416178619363	65.56428954724807	1089.73235854928	2312.910952874007	1071.424869059061	1207.696864325115	2676.823627702432	53.93597295474994	1063.039649741065	2642.534908461353	37.33578661812487	1174.365359116631	2218.222209311196	1020.712499943782	1100.128927803894	2521.513151820533	155.3284817038814	1160.832350096705	2473.033504450951	156.7496714946681	1133.364622951902	2507.274918278605	231.0893289677196	1186.82760294988	2462.325238733427	232.64607359753	1157.138622929795	2447.248537425863	616.3794780955965	1216.020157919107	2398.78477459321	586.4520612763539	1170.504969327162	2381.320748061248	703.7771542717718	1223.84979745778	2335.975528376075	675.4093890010905	1180.184465385769	
564	3.753333333333333	2413.01540836044	973.5919430542273	958.3083783343097	1834.368696160425	694.6579273021736	1036.324925548773	1835.429599775155	663.2819236069262	993.7480343843715	1868.167176959654	661.7301558715518	1034.211847267203	2364.677680319531	1054.049165172381	903.3078357943932	1726.568981328566	494.819640515226	1060.80954867674	1733.081865651804	536.0466491608593	952.3143933739638	2226.415280429404	1006.024271965715	988.822116031165	1912.337577131565	575.7061185746026	965.3558067289441	1923.572984237942	617.0508305448679	993.928735292885	1990.281448981326	564.6842486375116	946.0170968000103	2005.636535148765	604.9695305334367	977.2306010128571	2267.814800002705	607.889734161173	894.4099211083745	2212.513881022759	616.9924219779888	938.3945546866668	2274.704082449551	717.2573541804173	884.251234901802	2221.735798618703	726.5797368517797	926.6258247845104	2393.875363227368	983.8602498613552	1166.101964229778	2613.135097126996	83.44605201646132	1110.158162231189	2425.587371337428	22.07368756687315	1087.234102658904	2451.568444432361	38.73643810589252	1132.672925826908	2434.168579967095	67.62310504145941	1088.446742583799	2311.090776159745	1064.791732286788	1207.487892854063	2650.652239705216	46.06211131264621	1061.480058755986	2615.508643211496	32.39590148621235	1173.931532649031	2215.290882644414	1015.659106000078	1098.753156068941	2502.709081746304	153.3473974411261	1159.757104468509	2454.078081530243	157.532323740249	1132.885176236407	2492.778481454508	229.5874840980929	1186.444963640078	2447.574584851506	233.7053719776478	1157.30563261936	2444.996371497944	613.2242999174838	1217.494339018484	2397.36635113353	583.2965120224482	1171.12738387075	2378.565925074612	700.2827535476465	1224.860987109811	2333.860241992711	671.8467455038126	1180.543278124967	
565	3.76	2410.222722663951	966.7660031913252	958.4824922717155	1854.483577050397	694.9595899866373	1032.906123178582	1855.944909493151	663.1988593227886	990.4252901142009	1888.100476907362	661.9291504567431	1031.569568146297	2362.885429976666	1046.440825968071	902.3258823444562	1745.423547901383	496.0764970467313	1058.071701735757	1753.733291382307	535.9164044757688	949.3079257155568	2223.894315538602	999.9899638274395	987.675153759278	1931.868216485468	573.8632953650241	963.313965795239	1944.105942207694	615.3101567074021	991.5489478342658	2009.57843091063	560.8522983800826	944.1601134914946	2025.875120331284	601.0887394222609	975.0092985184766	2278.484264171538	600.5533739129038	893.4610675364627	2222.040894995185	607.4240441977713	936.1962528598632	2281.480072953149	710.1186600240982	883.4772860020231	2227.526435418886	717.3370291371059	924.8126120809611	2390.486102116991	979.6233663909888	1165.986630408852	2587.634219182727	78.97944824843934	1108.162335583474	2396.6373084905	24.30764340262044	1086.935190694221	2423.374615063691	40.92419503389535	1131.995099575202	2407.305133093898	69.87307018844507	1087.245970174479	2308.902008785195	1058.261988747778	1207.24041556678	2623.505494293339	40.44667666774602	1060.11936015484	2587.673445414298	29.41743779592338	1173.647254931857	2212.166501924393	1011.118972253562	1097.334483627939	2482.863875721964	152.1807898629065	1158.661111380946	2434.241144571095	159.146271801988	1132.356972678102	2477.220539406115	228.6990084706236	1186.015231876398	2431.914197823503	235.3821112894482	1157.383456333533	2441.858139704102	610.0862808988481	1218.910317342749	2395.112745146183	580.393098431112	1171.516169760135	2375.144751627383	696.9683284145294	1225.898875927759	2331.091660295338	668.6735440046043	1180.792861468717	
566	3.766666666666667	2407.03833493217	960.178544202029	958.6003083289576	1873.633123697578	693.4864071709413	1029.095588111431	1875.759747808745	661.2474336870431	986.7868357204014	1907.332928916407	660.6207725419545	1028.685901623512	2360.200652560559	1039.288424505786	901.4214447393202	1764.852411658455	494.7641557468622	1055.553047954153	1774.764051612094	532.965235156625	946.4113748725445	2221.178441190434	994.6962235535275	986.7071392070976	1951.474189999597	570.7271846612466	961.2502758675097	1964.447565566183	612.3513599973635	989.1327214022067	2029.02441503611	556.2353037956804	942.3194426905445	2046.004960716312	596.5030415850745	972.8012847405678	2289.886022639163	594.2269273031336	892.5781717060127	2232.264104113478	598.6444661923356	933.8739600238411	2288.748804186273	703.8804424990316	882.899209253737	2233.790464445858	708.7603117510461	923.0487016980029	2386.967107908274	975.8179280488262	1166.073493613302	2560.981687579341	76.09562782376186	1106.379155275866	2367.580882819016	26.49065774560809	1086.704130350834	2394.83726181252	43.23707395341042	1131.443493558098	2379.846347658982	72.0727087433379	1086.213555045411	2306.295267866961	1052.034520902844	1206.966401502414	2595.524633980478	36.88913448844689	1059.031413488672	2559.155580614794	28.08247026893044	1173.518370236185	2208.946838496461	1007.208521653072	1095.92413223801	2461.884999810379	151.5933111047282	1157.611592437446	2413.409560645992	161.2956966572858	1131.857818461116	2460.429276094145	228.1986916753718	1185.574628837604	2415.158230569462	237.3959979339948	1157.420816489048	2437.675029865402	606.9206089509216	1220.158567781105	2391.761885038728	577.7116141313605	1171.658468051256	2371.002313118416	693.8554963516959	1226.883434069373	2327.53308218628	665.9362823213468	1180.925221515919	
